<svg id="svg" version="1.1" viewBox="0 0 300 300" width="300" height="300" xmlns="http://www.w3.org/2000/svg"><svg xmlns="http://www.w3.org/2000/svg"><defs><clipPath id="clip-1"><rect x="0" y="0" transform="scale(0.14648,0.14648)" width="2048" height="2048" fill="none"/></clipPath></defs><g clip-path="url(#clip-1)" fill="none" fill-rule="nonzero" stroke="none" stroke-width="1" stroke-linecap="butt" stroke-linejoin="miter" stroke-miterlimit="10" stroke-dasharray="" stroke-dashoffset="0" font-family="none" font-weight="none" font-size="none" text-anchor="none" style="mix-blend-mode: normal"><path d="M0,0h300v300h-300z" fill="#f5f5f4"/><path d="M55.45283,70.78843c3.00425,-0.11997 6.71074,0.00571 9.78809,0.00762l19.8479,-0.00117l17.91255,-0.00557c3.6104,-0.00161 7.24951,-0.03516 10.85728,0.09331c10.41357,0.37061 21.03677,3.70576 29.80122,9.38628c13.24688,8.40352 22.57207,21.76509 25.89287,37.09687c3.16992,14.96689 0.47607,31.477 -7.93213,44.33394c-8.62646,13.27148 -22.16191,22.5835 -37.64062,25.89697c-0.95215,0.27246 -2.26172,0.47461 -3.24829,0.63281c-9.73271,1.56445 -19.72529,0.646 -29.54004,0.9126c-1.4436,0.03955 -1.66143,0.3501 -2.55513,1.39893c-0.16538,8.73633 0.06372,17.52539 -0.02417,26.26611c-0.01567,1.55713 0.07515,3.24463 -0.10151,4.78271c-0.10298,0.91406 -0.39111,1.7959 -0.84697,2.59424c-1.00415,1.77979 -2.69048,3.07178 -4.66948,3.57861c-1.96143,0.52295 -5.60596,0.33545 -7.77935,0.32227l-7.58086,-0.00586c-3.92285,0.00439 -8.01284,0.12451 -11.93877,-0.06738c-1.14097,-0.11865 -2.26289,-0.44824 -3.23511,-1.04883c-3.94893,-2.4375 -3.71206,-5.68652 -3.7103,-9.59766l0.01025,-7.79443l0.00747,-29.31152l-0.01465,-69.04248l0.01802,-21.65625c-0.00146,-3.65376 -0.09214,-7.33213 -0.01274,-10.98369c0.09258,-4.25508 2.42417,-7.09761 6.69448,-7.78843z" fill="#2f2f2f"/><path d="M106.23662,96.88784c0.47563,-0.03076 0.95215,-0.0498 1.42866,-0.05669c5.41846,-0.04395 10.57017,1.54995 14.41113,5.46812c5.3707,5.47896 4.70054,10.82681 4.64619,17.77266c1.9062,1.3856 2.33745,3.1519 1.97271,5.43281c-0.40767,2.54971 -1.54204,4.12266 -3.57949,5.6272c-1.02583,2.60273 -1.22051,4.64897 -2.80312,7.23413c-1.42822,2.33306 -4.10347,4.63945 -3.77446,7.40625c0.84961,7.14419 10.76367,6.76772 15.30029,10.50454c2.48262,2.04346 6.66855,10.5542 1.17817,11.09619c-2.11025,0.16113 -5.42607,0.02344 -7.70654,0.02637l-17.60405,-0.00586l-19.18916,-0.00879c-3.0041,0.00146 -6.19863,0.1333 -9.15864,-0.00879c-3.60923,-0.17285 -2.61211,-4.08545 -1.90781,-6.20068c1.58862,-4.771 4.87236,-6.35156 9.35244,-7.82666c1.57808,-0.51855 3.29927,-1.50293 4.82168,-2.21191c1.09438,-0.54199 2.50591,-1.34326 3.13228,-2.41113c2.77866,-4.73774 -0.26294,-6.24683 -2.49624,-9.90454c-1.41094,-2.31108 -2.56465,-4.97241 -3.1043,-7.49619c-2.89102,-1.89932 -4.49429,-5.1249 -3.85518,-8.75552c0.19556,-1.11094 0.95273,-1.73979 1.91587,-2.25483c0.00381,-6.33545 -0.76992,-11.88706 3.64307,-17.04331c3.49292,-4.08149 8.13501,-5.91987 13.37651,-6.38335z" fill="#f5f5f4"/><path d="M154.25537,70.79985c7.00488,-0.15117 14.54004,0.00073 21.58594,-0.00249l45.2959,0.01377l20.87402,-0.01494c3.51855,-0.00059 7.08838,-0.0873 10.59375,0.17183c1.21582,0.1563 2.38184,0.7478 3.34131,1.46689c2.26611,1.73145 2.79053,4.00869 2.72607,6.75776c-0.15234,6.55752 0.2959,13.50996 -0.20801,20.0313c-0.19482,2.53887 -3.44238,5.22554 -6.01025,5.52217c-3.65918,0.42275 -7.64941,0.22998 -11.43311,0.21519l-16.03857,0.00117c-2.83154,-0.00732 -5.76562,-0.0668 -8.59277,0.029c-0.52441,0.01772 -1.46484,0.23877 -1.91016,0.57686c-0.36768,0.27979 -0.37061,0.69155 -0.37939,1.17788c-0.06299,3.34629 -0.03662,6.73726 -0.03955,10.08384l-0.00293,20.21177v61.33462l0.00439,14.4873c0.00439,3.25781 0.33838,7.48682 -0.66211,10.62012c-0.54932,1.71826 -2.44043,3.24902 -4.09424,3.95801c-0.75879,0.3252 -1.56006,0.53613 -2.38037,0.62695c-0.96094,0.09521 -3.58887,0.02783 -4.66406,0.02344l-8.87842,-0.00879l-11.46094,0.01025c-4.82666,0.01318 -11.0874,0.9873 -13.29346,-4.60693c-0.37061,-0.9375 -0.47314,-1.98633 -0.47461,-2.99121c-0.0249,-15.61084 -0.02783,-31.22314 -0.01465,-46.83398c0.00879,-0.60791 0,-0.93896 0.27832,-1.48096c0.9917,-1.93066 2.30713,-3.70166 3.42334,-5.5708c2.18115,-3.60352 4.00928,-7.40918 5.4624,-11.36426c2.72461,-7.43262 4.22754,-14.14307 4.59082,-22.09204c0.854,-19.92056 -6.84229,-39.25723 -21.14941,-53.14365c-2.41113,-2.31548 -4.88086,-4.20498 -7.49414,-6.26147c-0.95508,-0.75146 -0.92432,-2.67246 1.00488,-2.94858z" fill="#2f2f2f"/></g></svg></svg>